<svg version="1.1" id="Layer_1" xmlns="http://www.w3.org/2000/svg" xmlns:xlink="http://www.w3.org/1999/xlink" x="0px" y="0px"
	 width="100%" viewBox="0 0 512 512" enable-background="new 0 0 512 512" xml:space="preserve">
<path fill="#000000" opacity="1.000000" stroke="none" 
	d="
M101.000000,1.000001 
	C238.278381,1.000000 375.556763,1.000000 512.917603,1.000000 
	C512.917603,171.543396 512.917603,342.086853 512.917603,513.000000 
	C461.311279,513.000000 409.621674,513.000000 357.166260,512.711182 
	C356.853027,511.966858 357.232422,511.385193 357.768799,511.074280 
	C376.265320,500.351807 394.723541,489.560791 413.341125,479.052216 
	C416.260468,477.404419 417.074860,475.685577 417.068909,472.515198 
	C416.973572,421.715698 417.004608,370.915955 417.320007,319.976868 
	C427.118774,310.232147 436.604431,300.626831 446.057922,291.009491 
	C446.025818,290.997498 446.001190,291.061462 446.271545,290.980316 
	C446.758728,290.597839 446.975555,290.296509 447.488159,289.860352 
	C456.855255,280.482697 465.926514,271.239807 475.298462,261.814880 
	C482.603638,256.212128 482.015686,248.954468 479.950836,241.712387 
	C476.173309,228.463394 467.037598,219.394913 455.196075,213.328735 
	C444.085022,207.636749 434.238434,208.235413 428.685883,217.109222 
	C424.624115,220.787949 420.879425,224.358353 417.075623,227.467896 
	C416.955811,213.322998 416.895111,199.638931 416.795471,185.608597 
	C404.820953,178.325943 392.873138,171.410507 380.952667,164.448288 
	C363.195831,154.077271 345.504333,143.593521 327.698059,133.308319 
	C313.232208,124.952560 298.587708,116.906250 284.113800,108.564171 
	C264.220245,97.098450 244.444366,85.428696 224.559540,73.947701 
	C205.920609,63.186035 187.171585,52.615005 168.532867,41.852974 
	C147.372864,29.635160 126.266312,17.324364 105.190468,4.962035 
	C103.574844,4.014369 102.386787,2.337779 101.000000,1.000001 
z"/>
<path fill="#000000" opacity="1.000000" stroke="none" 
	d="
M349.000000,513.000000 
	C233.053101,513.000000 117.106201,513.000000 1.079651,513.000000 
	C1.079651,342.333344 1.079651,171.666687 1.079651,1.000000 
	C31.425493,1.000000 61.744892,1.000000 92.835533,1.290554 
	C78.676468,10.393563 63.726288,19.172607 48.826431,28.036243 
	C43.471821,31.221598 38.238400,34.610664 32.922180,37.907444 
	C32.894691,37.908127 32.860149,37.949875 32.496857,38.182503 
	C32.089043,40.078789 32.005672,41.742443 32.005558,43.406105 
	C31.999300,136.566223 31.999321,229.726334 32.005482,322.886444 
	C32.005592,324.550323 32.087765,326.214233 32.104446,328.248779 
	C46.192059,336.720856 60.350292,344.748932 74.353188,353.039337 
	C75.723663,353.850708 76.866310,356.268921 76.884140,357.954285 
	C77.067345,375.267944 76.989235,392.584320 77.010406,409.899902 
	C77.012070,411.255280 77.212105,412.610413 77.353989,414.393463 
	C79.015167,413.340485 80.062408,412.628235 81.153992,411.992065 
	C95.896126,403.400604 110.572754,394.690948 125.480080,386.396027 
	C127.386238,385.335388 130.987137,385.580811 132.979385,386.694458 
	C146.742844,394.388214 160.269867,402.503784 173.907867,410.423462 
	C188.640244,418.978699 203.410751,427.468292 218.085419,436.367981 
	C215.062393,444.359863 212.118561,451.970276 209.097656,459.982483 
	C204.664841,471.763916 200.309113,483.143524 195.953400,494.523132 
	C196.275070,494.826904 196.596756,495.130646 196.918427,495.434418 
	C208.345139,490.899597 219.771866,486.364807 231.569000,481.878906 
	C234.451141,480.953522 236.973145,480.004730 239.472794,479.000305 
	C247.675980,475.704041 255.871048,472.387573 264.443726,469.045471 
	C266.871918,468.283478 268.925598,467.554901 271.343689,466.907043 
	C272.019897,467.062500 272.371277,467.068329 272.637756,467.221680 
	C297.005371,481.243835 321.378998,495.255768 345.694519,509.367767 
	C347.044342,510.151184 347.909363,511.769989 349.000000,513.000000 
z"/>
<path fill="#D8ECFE" opacity="1.000000" stroke="none" 
	d="
M32.949673,37.906761 
	C38.238400,34.610664 43.471821,31.221598 48.826431,28.036243 
	C63.726288,19.172607 78.676468,10.393563 93.303391,1.290554 
	C95.370560,1.000000 97.741112,1.000000 100.555832,1.000001 
	C102.386787,2.337779 103.574844,4.014369 105.190468,4.962035 
	C126.266312,17.324364 147.372864,29.635160 168.532867,41.852974 
	C187.171585,52.615005 205.920609,63.186035 224.559540,73.947701 
	C244.444366,85.428696 264.220245,97.098450 284.113800,108.564171 
	C298.587708,116.906250 313.232208,124.952560 327.698059,133.308319 
	C345.504333,143.593521 363.195831,154.077271 380.952667,164.448288 
	C392.873138,171.410507 404.820953,178.325943 416.488739,185.753693 
	C409.906586,189.883881 403.606079,193.546967 397.275085,197.156555 
	C382.606476,205.519821 367.923126,213.857208 352.871765,222.111267 
	C350.840820,221.248474 349.111603,220.604279 347.537598,219.692245 
	C312.608734,199.453384 277.731934,179.124542 242.772415,158.938858 
	C206.802689,138.169861 170.730560,117.578285 134.749466,96.828896 
	C100.784935,77.242393 66.880524,57.551655 32.949673,37.906761 
z"/>
<path fill="#60B7FF" opacity="1.000000" stroke="none" 
	d="
M417.006897,320.116272 
	C417.004608,370.915955 416.973572,421.715698 417.068909,472.515198 
	C417.074860,475.685577 416.260468,477.404419 413.341125,479.052216 
	C394.723541,489.560791 376.265320,500.351807 357.768799,511.074280 
	C357.232422,511.385193 356.853027,511.966858 356.700226,512.711182 
	C355.933319,513.000000 354.866669,513.000000 353.400391,512.531372 
	C352.987823,469.384796 352.974823,426.706909 353.101257,383.721893 
	C373.943420,362.665894 394.644196,341.915131 415.361603,321.180939 
	C415.813049,320.729126 416.454224,320.466919 417.006897,320.116272 
z"/>
<path fill="#B3DAFE" opacity="1.000000" stroke="none" 
	d="
M352.961823,384.028992 
	C352.974823,426.706909 352.987823,469.384796 353.000397,512.531372 
	C351.933319,513.000000 350.866669,513.000000 349.399994,513.000000 
	C347.909363,511.769989 347.044342,510.151184 345.694519,509.367767 
	C321.378998,495.255768 297.005371,481.243835 272.637756,467.221680 
	C272.371277,467.068329 272.019897,467.062500 271.376495,466.570129 
	C272.199158,464.772583 273.255951,463.295410 274.522125,462.027252 
	C299.297913,437.213654 324.094604,412.420868 348.903168,387.639984 
	C350.182190,386.362427 351.605621,385.229370 352.961823,384.028992 
z"/>
<path fill="#0AB69F" opacity="1.000000" stroke="none" 
	d="
M353.101257,383.721863 
	C351.605621,385.229370 350.182190,386.362427 348.903168,387.639984 
	C324.094604,412.420868 299.297913,437.213654 274.522125,462.027252 
	C273.255951,463.295410 272.199158,464.772583 271.012085,466.489380 
	C268.925598,467.554901 266.871918,468.283478 264.051971,468.897339 
	C243.878128,469.154053 220.891052,445.189636 222.818924,426.719971 
	C224.643250,423.598328 225.914932,420.404724 228.136429,418.144775 
	C243.490982,402.524139 259.052094,387.106689 274.517731,371.594940 
	C275.907593,370.200928 277.091644,368.601715 278.675171,367.013184 
	C281.032990,364.719604 283.086945,362.510590 285.458191,360.175140 
	C290.853241,354.999664 295.930908,349.950592 301.304321,344.768799 
	C304.366211,341.759735 307.132355,338.883392 310.172974,335.814209 
	C319.058411,327.034760 327.710724,318.488983 336.265991,309.847168 
	C341.994598,304.060577 347.585449,298.137604 353.551270,292.153198 
	C365.401001,280.621582 376.915863,269.190491 388.486328,257.815948 
	C392.245575,254.120361 396.150116,250.572571 400.021484,247.417847 
	C400.389526,251.818726 400.047913,255.964508 401.172394,259.664795 
	C407.041870,278.979645 424.126251,290.733551 446.090057,291.021484 
	C436.604431,300.626831 427.118774,310.232147 417.320007,319.976898 
	C416.454224,320.466919 415.813049,320.729126 415.361603,321.180939 
	C394.644196,341.915131 373.943420,362.665894 353.101257,383.721863 
z"/>
<path fill="#60B7FE" opacity="1.000000" stroke="none" 
	d="
M399.988190,246.957199 
	C396.150116,250.572571 392.245575,254.120361 388.486328,257.815948 
	C376.915863,269.190491 365.401001,280.621582 353.475342,291.665039 
	C353.139374,268.267944 353.192566,245.236526 353.245758,222.205109 
	C367.923126,213.857208 382.606476,205.519821 397.275085,197.156555 
	C403.606079,193.546967 409.906586,189.883881 416.527649,186.099976 
	C416.895111,199.638931 416.955811,213.322998 416.986237,227.803375 
	C411.603119,234.302597 406.250336,240.005493 400.666321,245.866898 
	C400.277130,246.351669 400.119110,246.677933 399.982666,247.001129 
	C400.004272,246.998077 399.988190,246.957199 399.988190,246.957199 
z"/>
<path fill="#0055A3" opacity="1.000000" stroke="none" 
	d="
M400.897552,245.708389 
	C406.250336,240.005493 411.603119,234.302597 417.045349,228.264221 
	C420.879425,224.358353 424.624115,220.787949 428.700317,217.570709 
	C429.915436,223.729416 429.341858,230.311417 431.946625,235.199783 
	C440.970795,252.135376 453.611816,264.400818 474.997772,261.996918 
	C465.926514,271.239807 456.855255,280.482697 447.208832,289.942719 
	C446.422852,290.460388 446.212006,290.760925 446.001160,291.061462 
	C446.001190,291.061462 446.025818,290.997498 446.057922,291.009491 
	C424.126251,290.733551 407.041870,278.979645 401.172394,259.664795 
	C400.047913,255.964508 400.389526,251.818726 400.021484,247.417847 
	C399.988190,246.957199 400.004272,246.998077 400.242157,246.878967 
	C400.619232,246.409363 400.758392,246.058884 400.897552,245.708389 
z"/>
<path fill="#0573CE" opacity="1.000000" stroke="none" 
	d="
M475.298462,261.814880 
	C453.611816,264.400818 440.970795,252.135376 431.946625,235.199783 
	C429.341858,230.311417 429.915436,223.729416 429.017426,217.462387 
	C434.238434,208.235413 444.085022,207.636749 455.196075,213.328735 
	C467.037598,219.394913 476.173309,228.463394 479.950836,241.712387 
	C482.015686,248.954468 482.603638,256.212128 475.298462,261.814880 
z"/>
<path fill="#0AB69F" opacity="1.000000" stroke="none" 
	d="
M446.271545,290.980316 
	C446.212006,290.760925 446.422852,290.460388 446.913025,290.077515 
	C446.975555,290.296509 446.758728,290.597839 446.271545,290.980316 
z"/>
<path fill="#B3DAFE" opacity="1.000000" stroke="none" 
	d="
M352.871765,222.111267 
	C353.192566,245.236526 353.139374,268.267944 353.162079,291.787537 
	C347.585449,298.137604 341.994598,304.060577 336.265991,309.847168 
	C327.710724,318.488983 319.058411,327.034760 309.811951,335.803040 
	C301.329010,331.685944 293.401337,327.526611 285.648743,323.063171 
	C259.279999,307.881744 232.982590,292.576416 206.639862,277.349701 
	C179.145279,261.457184 151.633514,245.594376 124.121010,229.732864 
	C116.341789,225.247986 108.531090,220.817749 100.740250,216.352997 
	C97.830200,214.685318 94.921211,214.158157 92.893433,217.434860 
	C90.673813,221.021576 92.848778,223.341125 95.779266,225.207123 
	C96.200050,225.475037 96.620544,225.744415 97.051987,225.994431 
	C113.739670,235.664810 130.411636,245.362457 147.120560,254.995987 
	C195.664658,282.984161 244.232956,310.930420 292.753845,338.958771 
	C295.674988,340.646210 298.264679,342.907379 301.008606,344.901550 
	C295.930908,349.950592 290.853241,354.999664 285.261932,359.869019 
	C260.886353,345.822235 237.044769,331.919922 213.157043,318.097412 
	C185.954956,302.357056 158.714523,286.682892 131.485321,270.989410 
	C110.594902,258.949280 89.677696,246.955460 68.820084,234.858810 
	C65.576546,232.977676 62.644955,232.734787 60.680031,236.151382 
	C58.617523,239.737640 60.944733,242.133194 63.893219,243.868759 
	C68.049126,246.315033 72.306763,248.587799 76.482658,251.000916 
	C105.133850,267.557526 133.768982,284.141907 162.421234,300.696655 
	C189.921539,316.585815 217.415451,332.486267 244.954910,348.307343 
	C256.035095,354.672791 267.229095,360.840210 278.371277,367.097778 
	C277.091644,368.601715 275.907593,370.200928 274.517731,371.594940 
	C259.052094,387.106689 243.490982,402.524139 228.136429,418.144775 
	C225.914932,420.404724 224.643250,423.598328 222.629517,426.989746 
	C220.939575,430.408569 219.552109,433.197540 218.164642,435.986511 
	C203.410751,427.468292 188.640244,418.978699 173.907867,410.423462 
	C160.269867,402.503784 146.742844,394.388214 132.979385,386.694458 
	C130.987137,385.580811 127.386238,385.335388 125.480080,386.396027 
	C110.572754,394.690948 95.896126,403.400604 81.153992,411.992065 
	C80.062408,412.628235 79.015167,413.340485 77.353989,414.393463 
	C77.212105,412.610413 77.012070,411.255280 77.010406,409.899902 
	C76.989235,392.584320 77.067345,375.267944 76.884140,357.954285 
	C76.866310,356.268921 75.723663,353.850708 74.353188,353.039337 
	C60.350292,344.748932 46.192059,336.720856 32.377151,327.951019 
	C32.784657,325.630707 32.986134,323.978821 32.986401,322.326965 
	C33.001461,229.198822 33.000473,136.070663 32.993893,42.942520 
	C32.993774,41.278301 32.906666,39.614090 32.860149,37.949875 
	C32.860149,37.949875 32.894691,37.908127 32.922180,37.907448 
	C66.880524,57.551655 100.784935,77.242393 134.749466,96.828896 
	C170.730560,117.578285 206.802689,138.169861 242.772415,158.938858 
	C277.731934,179.124542 312.608734,199.453384 347.537598,219.692245 
	C349.111603,220.604279 350.840820,221.248474 352.871765,222.111267 
M324.075317,271.567780 
	C312.877808,265.038605 301.694366,258.485107 290.479919,251.985138 
	C264.156311,236.727768 237.831299,221.472656 211.481659,206.260300 
	C184.267654,190.548920 157.019592,174.896561 129.795471,159.202698 
	C120.289192,153.722595 110.806747,148.201096 101.319984,142.687195 
	C98.170326,140.856552 94.932388,139.775375 92.747429,143.751648 
	C90.642105,147.583008 92.768066,149.987518 96.239243,151.635025 
	C97.737556,152.346161 99.150345,153.240234 100.589722,154.072418 
	C129.233551,170.632996 157.867401,187.210815 186.520325,203.755615 
	C213.877029,219.552002 241.253036,235.314987 268.620911,251.092010 
	C284.897766,260.475281 301.189392,269.833038 317.438141,279.264771 
	C320.039520,280.774719 322.856964,281.439789 324.452271,278.720184 
	C325.428253,277.056335 324.617706,274.344513 324.075317,271.567780 
M78.973717,178.506104 
	C102.141212,191.916107 125.297760,205.345062 148.479034,218.731201 
	C175.836151,234.528656 203.217453,250.284256 230.582932,266.067230 
	C248.874863,276.617096 267.156036,287.185547 285.445679,297.739349 
	C288.403107,299.445831 291.350769,299.733490 293.191315,296.373413 
	C295.104950,292.879974 293.345856,290.389008 290.172485,288.616638 
	C286.252625,286.427399 282.350403,284.205780 278.461761,281.961487 
	C249.517563,265.256409 220.578964,248.541595 191.637909,231.831055 
	C164.568146,216.200974 137.495468,200.575867 110.428070,184.941666 
	C96.750198,177.041275 83.105133,169.083603 69.389648,161.249115 
	C66.330177,159.501511 62.723595,158.541245 60.630287,162.333542 
	C58.502335,166.188614 61.393658,168.449524 64.478928,170.218063 
	C69.095100,172.864120 73.710793,175.511002 78.973717,178.506104 
M192.372253,343.151215 
	C171.648376,331.144836 150.942917,319.106537 130.195389,307.141144 
	C109.734924,295.341309 89.211945,283.649780 68.767883,271.821747 
	C65.490158,269.925385 62.583271,269.792755 60.647907,273.192627 
	C58.760071,276.509003 60.699764,278.747131 63.663391,280.457977 
	C75.330826,287.193359 86.931259,294.044739 98.595543,300.785583 
	C125.957672,316.598358 153.345551,332.366516 180.716309,348.164337 
	C194.257568,355.980072 207.803436,363.788239 221.303528,371.674591 
	C224.665787,373.638733 227.501984,373.285828 229.345993,369.894775 
	C231.170837,366.538940 229.342728,364.359985 226.329330,362.649536 
	C215.191284,356.327484 204.116867,349.893372 192.372253,343.151215 
z"/>
<path fill="#FCD0BE" opacity="1.000000" stroke="none" 
	d="
M218.085419,436.367981 
	C219.552109,433.197540 220.939575,430.408569 222.516449,427.349823 
	C220.891052,445.189636 243.878128,469.154053 263.677490,468.930786 
	C255.871048,472.387573 247.675980,475.704041 239.472794,479.000305 
	C236.973145,480.004730 234.451141,480.953522 231.400146,481.582581 
	C221.705902,475.947357 215.007538,468.197388 209.174744,459.580688 
	C212.118561,451.970276 215.062393,444.359863 218.085419,436.367981 
z"/>
<path fill="#0774CE" opacity="1.000000" stroke="none" 
	d="
M209.097641,459.982483 
	C215.007538,468.197388 221.705902,475.947357 231.029739,481.533691 
	C219.771866,486.364807 208.345139,490.899597 196.918427,495.434418 
	C196.596756,495.130646 196.275070,494.826904 195.953400,494.523132 
	C200.309113,483.143524 204.664841,471.763916 209.097641,459.982483 
z"/>
<path fill="#80FFFF" opacity="1.000000" stroke="none" 
	d="
M32.496857,38.182503 
	C32.906666,39.614090 32.993774,41.278301 32.993893,42.942520 
	C33.000473,136.070663 33.001461,229.198822 32.986401,322.326965 
	C32.986134,323.978821 32.784657,325.630707 32.404354,327.580322 
	C32.087765,326.214233 32.005592,324.550323 32.005482,322.886444 
	C31.999321,229.726334 31.999300,136.566223 32.005558,43.406105 
	C32.005672,41.742443 32.089043,40.078789 32.496857,38.182503 
z"/>
<path fill="#83AFE4" opacity="1.000000" stroke="none" 
	d="
M278.675171,367.013184 
	C267.229095,360.840210 256.035095,354.672791 244.954910,348.307343 
	C217.415451,332.486267 189.921539,316.585815 162.421234,300.696655 
	C133.768982,284.141907 105.133850,267.557526 76.482658,251.000916 
	C72.306763,248.587799 68.049126,246.315033 63.893219,243.868759 
	C60.944733,242.133194 58.617523,239.737640 60.680031,236.151382 
	C62.644955,232.734787 65.576546,232.977676 68.820084,234.858810 
	C89.677696,246.955460 110.594902,258.949280 131.485321,270.989410 
	C158.714523,286.682892 185.954956,302.357056 213.157043,318.097412 
	C237.044769,331.919922 260.886353,345.822235 284.944580,359.995422 
	C283.086945,362.510590 281.032990,364.719604 278.675171,367.013184 
z"/>
<path fill="#83AFE4" opacity="1.000000" stroke="none" 
	d="
M301.304321,344.768799 
	C298.264679,342.907379 295.674988,340.646210 292.753845,338.958771 
	C244.232956,310.930420 195.664658,282.984161 147.120560,254.995987 
	C130.411636,245.362457 113.739670,235.664810 97.051987,225.994431 
	C96.620544,225.744415 96.200050,225.475037 95.779266,225.207123 
	C92.848778,223.341125 90.673813,221.021576 92.893433,217.434860 
	C94.921211,214.158157 97.830200,214.685318 100.740250,216.352997 
	C108.531090,220.817749 116.341789,225.247986 124.121010,229.732864 
	C151.633514,245.594376 179.145279,261.457184 206.639862,277.349701 
	C232.982590,292.576416 259.279999,307.881744 285.648743,323.063171 
	C293.401337,327.526611 301.329010,331.685944 309.537476,335.995850 
	C307.132355,338.883392 304.366211,341.759735 301.304321,344.768799 
z"/>
<path fill="#0AB69F" opacity="1.000000" stroke="none" 
	d="
M400.666321,245.866898 
	C400.758392,246.058884 400.619232,246.409363 400.220581,246.882019 
	C400.119110,246.677933 400.277130,246.351669 400.666321,245.866898 
z"/>
<path fill="#83AFE4" opacity="1.000000" stroke="none" 
	d="
M324.342407,271.835571 
	C324.617706,274.344513 325.428253,277.056335 324.452271,278.720184 
	C322.856964,281.439789 320.039520,280.774719 317.438141,279.264771 
	C301.189392,269.833038 284.897766,260.475281 268.620911,251.092010 
	C241.253036,235.314987 213.877029,219.552002 186.520325,203.755615 
	C157.867401,187.210815 129.233551,170.632996 100.589722,154.072418 
	C99.150345,153.240234 97.737556,152.346161 96.239243,151.635025 
	C92.768066,149.987518 90.642105,147.583008 92.747429,143.751648 
	C94.932388,139.775375 98.170326,140.856552 101.319984,142.687195 
	C110.806747,148.201096 120.289192,153.722595 129.795471,159.202698 
	C157.019592,174.896561 184.267654,190.548920 211.481659,206.260300 
	C237.831299,221.472656 264.156311,236.727768 290.479919,251.985138 
	C301.694366,258.485107 312.877808,265.038605 324.342407,271.835571 
z"/>
<path fill="#83AFE4" opacity="1.000000" stroke="none" 
	d="
M78.650200,178.331818 
	C73.710793,175.511002 69.095100,172.864120 64.478928,170.218063 
	C61.393658,168.449524 58.502335,166.188614 60.630287,162.333542 
	C62.723595,158.541245 66.330177,159.501511 69.389648,161.249115 
	C83.105133,169.083603 96.750198,177.041275 110.428070,184.941666 
	C137.495468,200.575867 164.568146,216.200974 191.637909,231.831055 
	C220.578964,248.541595 249.517563,265.256409 278.461761,281.961487 
	C282.350403,284.205780 286.252625,286.427399 290.172485,288.616638 
	C293.345856,290.389008 295.104950,292.879974 293.191315,296.373413 
	C291.350769,299.733490 288.403107,299.445831 285.445679,297.739349 
	C267.156036,287.185547 248.874863,276.617096 230.582932,266.067230 
	C203.217453,250.284256 175.836151,234.528656 148.479034,218.731201 
	C125.297760,205.345062 102.141212,191.916107 78.650200,178.331818 
z"/>
<path fill="#83AFE4" opacity="1.000000" stroke="none" 
	d="
M192.695404,343.326294 
	C204.116867,349.893372 215.191284,356.327484 226.329330,362.649536 
	C229.342728,364.359985 231.170837,366.538940 229.345993,369.894775 
	C227.501984,373.285828 224.665787,373.638733 221.303528,371.674591 
	C207.803436,363.788239 194.257568,355.980072 180.716309,348.164337 
	C153.345551,332.366516 125.957672,316.598358 98.595543,300.785583 
	C86.931259,294.044739 75.330826,287.193359 63.663391,280.457977 
	C60.699764,278.747131 58.760071,276.509003 60.647907,273.192627 
	C62.583271,269.792755 65.490158,269.925385 68.767883,271.821747 
	C89.211945,283.649780 109.734924,295.341309 130.195389,307.141144 
	C150.942917,319.106537 171.648376,331.144836 192.695404,343.326294 
z"/>
</svg>